<svg width="26" height="27" viewBox="0 0 26 27" fill="none" xmlns="http://www.w3.org/2000/svg">
<g clip-path="url(#clip0)">
<path d="M17.7567 0.888916H8.13167C3.70257 0.888916 0.11084 4.48065 0.11084 8.90975V18.5347C0.11084 22.9639 3.70257 26.5556 8.13167 26.5556H17.7567C22.1858 26.5556 25.7775 22.9639 25.7775 18.5347V8.90975C25.7775 4.48065 22.1858 0.888916 17.7567 0.888916ZM23.3713 18.5347C23.3713 21.6308 20.8527 24.1493 17.7567 24.1493H8.13167C5.03563 24.1493 2.51709 21.6308 2.51709 18.5347V8.90975C2.51709 5.81371 5.03563 3.29517 8.13167 3.29517H17.7567C20.8527 3.29517 23.3713 5.81371 23.3713 8.90975V18.5347Z" fill="white"/>
<path d="M12.944 7.30566C9.40041 7.30566 6.52734 10.1787 6.52734 13.7223C6.52734 17.2659 9.40041 20.139 12.944 20.139C16.4876 20.139 19.3607 17.2659 19.3607 13.7223C19.3607 10.1787 16.4876 7.30566 12.944 7.30566ZM12.944 17.7327C10.7335 17.7327 8.93359 15.9329 8.93359 13.7223C8.93359 11.5102 10.7335 9.71191 12.944 9.71191C15.1546 9.71191 16.9544 11.5102 16.9544 13.7223C16.9544 15.9329 15.1546 17.7327 12.944 17.7327Z" fill="white"/>
<path d="M19.8423 7.67928C20.3145 7.67928 20.6974 7.29647 20.6974 6.82426C20.6974 6.35204 20.3145 5.96924 19.8423 5.96924C19.3701 5.96924 18.9873 6.35204 18.9873 6.82426C18.9873 7.29647 19.3701 7.67928 19.8423 7.67928Z" fill="white"/>
</g>
<defs>
<clipPath id="clip0">
<rect width="25.6667" height="25.6667" fill="white" transform="translate(0.11084 0.888916)"/>
</clipPath>
</defs>
</svg>
