<svg width="31" height="31" viewBox="0 0 31 31" fill="none" xmlns="http://www.w3.org/2000/svg">
<g clip-path="url(#clip0)">
<path d="M30.5556 6.24814C29.4193 6.74658 28.2085 7.07696 26.9462 7.23738C28.2448 6.46203 29.2359 5.24363 29.7019 3.77505C28.4911 4.49693 27.1543 5.00683 25.7297 5.29137C24.58 4.06724 22.9415 3.30908 21.154 3.30908C17.6859 3.30908 14.8939 6.12401 14.8939 9.57488C14.8939 10.0714 14.9359 10.5488 15.0391 11.0034C9.83125 10.7494 5.22309 8.25335 2.12743 4.4511C1.58698 5.38877 1.26997 6.46203 1.26997 7.61742C1.26997 9.78686 2.38715 11.7099 4.05243 12.8233C3.04601 12.8042 2.05868 12.512 1.22222 12.0518C1.22222 12.0709 1.22222 12.0957 1.22222 12.1205C1.22222 15.1646 3.39358 17.6931 6.24097 18.2756C5.73108 18.415 5.17535 18.4818 4.59861 18.4818C4.19757 18.4818 3.79271 18.4589 3.41267 18.3749C4.22431 20.8556 6.52743 22.6794 9.26597 22.7386C7.13472 24.4058 4.42865 25.4103 1.49913 25.4103C0.985417 25.4103 0.492708 25.3874 0 25.3244C2.77483 27.1138 6.06337 28.1355 9.60972 28.1355C21.1368 28.1355 27.4389 18.5869 27.4389 10.3101C27.4389 10.0332 27.4293 9.76585 27.416 9.5004C28.6592 8.61811 29.7038 7.5162 30.5556 6.24814Z" fill="white"/>
</g>
<defs>
<clipPath id="clip0">
<rect width="30.5556" height="30.5556" fill="white" transform="translate(0 0.44458)"/>
</clipPath>
</defs>
</svg>
