<svg width="34" height="33" viewBox="0 0 34 33" fill="none" xmlns="http://www.w3.org/2000/svg">
<g clip-path="url(#clip0)">
<path d="M32.7628 8.6993C32.3588 6.94429 30.9233 5.6495 29.1952 5.45635C25.103 4.99955 20.9611 4.99716 16.8383 4.99955C12.7148 4.99716 8.57219 4.99955 4.48002 5.45635C2.75295 5.6495 1.31849 6.94429 0.914489 8.6993C0.33948 11.1986 0.333008 13.9268 0.333008 16.5001C0.333008 19.0733 0.333008 21.8012 0.908017 24.3002C1.31134 26.0548 2.74614 27.3496 4.47423 27.5431C8.56606 28.0003 12.7083 28.0026 16.8318 28.0003C20.956 28.0026 25.0972 28.0003 29.1887 27.5431C30.9158 27.35 32.3516 26.0552 32.7556 24.3002C33.331 21.8008 33.333 19.073 33.333 16.5001C33.333 13.9268 33.3378 11.1986 32.7628 8.6993ZM12.5744 21.622C12.5744 17.9717 12.5744 14.3595 12.5744 10.7088C16.0718 12.5336 19.5461 14.3462 23.0656 16.1823C19.557 18.002 16.081 19.8036 12.5744 21.622Z" fill="white"/>
</g>
<defs>
<clipPath id="clip0">
<rect width="33" height="33" fill="white" transform="translate(0.333008)"/>
</clipPath>
</defs>
</svg>
